<svg xmlns="http://www.w3.org/2000/svg" xmlns:xlink="http://www.w3.org/1999/xlink" width="800" zoomAndPan="magnify" viewBox="0 0 600 599.999999" height="800" preserveAspectRatio="xMidYMid meet" version="1.0"><path fill="#ffffff" d="M 582.621094 282.78125 L 318.769531 18.929688 C 318.160156 18.320312 317.519531 17.738281 316.851562 17.191406 C 316.183594 16.644531 315.492188 16.128906 314.773438 15.648438 C 314.054688 15.171875 313.3125 14.726562 312.550781 14.320312 C 311.789062 13.910156 311.011719 13.542969 310.210938 13.210938 C 309.414062 12.882812 308.601562 12.589844 307.773438 12.339844 C 306.949219 12.089844 306.109375 11.878906 305.261719 11.710938 C 304.414062 11.542969 303.5625 11.417969 302.703125 11.332031 C 301.84375 11.246094 300.980469 11.203125 300.117188 11.203125 C 299.253906 11.203125 298.390625 11.246094 297.53125 11.332031 C 296.671875 11.417969 295.816406 11.542969 294.96875 11.710938 C 294.121094 11.878906 293.285156 12.089844 292.457031 12.339844 C 291.632812 12.589844 290.820312 12.882812 290.019531 13.210938 C 289.222656 13.542969 288.441406 13.910156 287.679688 14.320312 C 286.917969 14.726562 286.179688 15.171875 285.460938 15.648438 C 284.742188 16.128906 284.046875 16.644531 283.378906 17.191406 C 282.710938 17.738281 282.074219 18.320312 281.460938 18.929688 L 70.382812 230.011719 L 17.609375 282.78125 C 17.015625 283.394531 16.453125 284.039062 15.921875 284.707031 C 15.390625 285.375 14.894531 286.070312 14.429688 286.789062 C 13.964844 287.503906 13.539062 288.242188 13.144531 289.003906 C 12.753906 289.761719 12.398438 290.539062 12.082031 291.332031 C 11.765625 292.125 11.488281 292.933594 11.25 293.753906 C 11.011719 294.574219 10.8125 295.40625 10.65625 296.246094 C 10.5 297.085938 10.382812 297.929688 10.308594 298.78125 C 10.230469 299.632812 10.199219 300.484375 10.203125 301.339844 C 10.210938 302.195312 10.261719 303.046875 10.351562 303.898438 C 10.441406 304.746094 10.574219 305.589844 10.746094 306.425781 C 10.917969 307.265625 11.128906 308.089844 11.382812 308.90625 C 11.632812 309.722656 11.925781 310.527344 12.257812 311.316406 C 12.585938 312.101562 12.953125 312.871094 13.359375 313.625 C 13.765625 314.378906 14.207031 315.109375 14.683594 315.816406 C 15.160156 316.527344 15.667969 317.210938 16.210938 317.871094 C 16.753906 318.53125 17.328125 319.164062 17.933594 319.769531 C 18.535156 320.371094 19.167969 320.945312 19.828125 321.488281 C 20.488281 322.03125 21.171875 322.542969 21.882812 323.019531 C 22.59375 323.496094 23.324219 323.933594 24.074219 324.339844 C 24.828125 324.746094 25.597656 325.113281 26.386719 325.445312 C 27.175781 325.773438 27.976562 326.066406 28.792969 326.320312 C 29.609375 326.570312 30.4375 326.785156 31.273438 326.957031 C 32.109375 327.128906 32.953125 327.257812 33.804688 327.347656 C 34.652344 327.441406 35.503906 327.488281 36.359375 327.496094 C 37.214844 327.503906 38.066406 327.46875 38.917969 327.394531 C 39.769531 327.316406 40.617188 327.203125 41.457031 327.042969 C 42.296875 326.886719 43.125 326.6875 43.945312 326.449219 C 44.765625 326.210938 45.574219 325.933594 46.367188 325.617188 C 47.160156 325.300781 47.9375 324.945312 48.699219 324.554688 C 49.457031 324.164062 50.195312 323.734375 50.914062 323.269531 C 51.628906 322.804688 52.324219 322.308594 52.992188 321.777344 C 53.664062 321.246094 54.304688 320.683594 54.917969 320.089844 L 62.648438 312.359375 L 62.648438 565.285156 C 62.648438 566.152344 62.691406 567.011719 62.777344 567.875 C 62.863281 568.734375 62.988281 569.585938 63.15625 570.433594 C 63.324219 571.28125 63.535156 572.121094 63.785156 572.945312 C 64.039062 573.773438 64.328125 574.585938 64.660156 575.382812 C 64.988281 576.183594 65.359375 576.960938 65.765625 577.726562 C 66.171875 578.488281 66.617188 579.226562 67.097656 579.945312 C 67.578125 580.664062 68.089844 581.359375 68.640625 582.027344 C 69.1875 582.695312 69.765625 583.332031 70.378906 583.945312 C 70.988281 584.554688 71.628906 585.136719 72.296875 585.683594 C 72.964844 586.230469 73.65625 586.746094 74.375 587.226562 C 75.09375 587.707031 75.835938 588.148438 76.597656 588.554688 C 77.359375 588.964844 78.140625 589.332031 78.9375 589.664062 C 79.738281 589.996094 80.550781 590.285156 81.375 590.535156 C 82.203125 590.785156 83.039062 590.996094 83.886719 591.164062 C 84.734375 591.332031 85.589844 591.460938 86.449219 591.546875 C 87.308594 591.628906 88.171875 591.671875 89.035156 591.671875 L 511.199219 591.671875 C 512.0625 591.671875 512.921875 591.628906 513.785156 591.546875 C 514.644531 591.460938 515.496094 591.332031 516.34375 591.164062 C 517.191406 590.996094 518.03125 590.785156 518.855469 590.535156 C 519.683594 590.285156 520.496094 589.996094 521.292969 589.664062 C 522.09375 589.332031 522.875 588.964844 523.636719 588.554688 C 524.398438 588.148438 525.136719 587.707031 525.855469 587.226562 C 526.574219 586.746094 527.269531 586.230469 527.9375 585.683594 C 528.605469 585.136719 529.242188 584.554688 529.855469 583.945312 C 530.464844 583.332031 531.046875 582.695312 531.59375 582.027344 C 532.140625 581.359375 532.65625 580.664062 533.136719 579.945312 C 533.617188 579.226562 534.058594 578.488281 534.46875 577.726562 C 534.875 576.960938 535.242188 576.183594 535.574219 575.382812 C 535.90625 574.585938 536.195312 573.773438 536.445312 572.945312 C 536.699219 572.121094 536.90625 571.28125 537.074219 570.433594 C 537.242188 569.585938 537.371094 568.734375 537.457031 567.875 C 537.539062 567.011719 537.582031 566.152344 537.582031 565.285156 L 537.582031 312.359375 L 545.3125 320.089844 C 545.929688 320.683594 546.570312 321.246094 547.238281 321.777344 C 547.910156 322.308594 548.601562 322.804688 549.320312 323.269531 C 550.039062 323.734375 550.777344 324.164062 551.535156 324.554688 C 552.292969 324.945312 553.070312 325.300781 553.863281 325.617188 C 554.660156 325.933594 555.464844 326.210938 556.285156 326.449219 C 557.105469 326.6875 557.9375 326.886719 558.777344 327.042969 C 559.617188 327.203125 560.464844 327.316406 561.3125 327.394531 C 562.164062 327.46875 563.019531 327.503906 563.871094 327.496094 C 564.726562 327.488281 565.578125 327.4375 566.429688 327.347656 C 567.277344 327.257812 568.121094 327.128906 568.960938 326.957031 C 569.796875 326.785156 570.625 326.570312 571.441406 326.320312 C 572.257812 326.066406 573.058594 325.773438 573.847656 325.445312 C 574.632812 325.113281 575.40625 324.746094 576.15625 324.339844 C 576.910156 323.933594 577.640625 323.496094 578.351562 323.019531 C 579.058594 322.542969 579.746094 322.03125 580.40625 321.488281 C 581.0625 320.945312 581.695312 320.371094 582.300781 319.769531 C 582.90625 319.164062 583.480469 318.53125 584.019531 317.871094 C 584.5625 317.210938 585.074219 316.527344 585.550781 315.816406 C 586.027344 315.109375 586.46875 314.378906 586.871094 313.625 C 587.277344 312.871094 587.644531 312.101562 587.976562 311.3125 C 588.304688 310.527344 588.597656 309.722656 588.851562 308.90625 C 589.101562 308.089844 589.316406 307.265625 589.488281 306.425781 C 589.660156 305.589844 589.789062 304.746094 589.882812 303.898438 C 589.972656 303.046875 590.019531 302.195312 590.027344 301.339844 C 590.035156 300.484375 590 299.632812 589.925781 298.78125 C 589.851562 297.929688 589.734375 297.085938 589.574219 296.246094 C 589.417969 295.40625 589.21875 294.574219 588.980469 293.753906 C 588.742188 292.933594 588.464844 292.125 588.148438 291.332031 C 587.832031 290.539062 587.480469 289.761719 587.085938 289.003906 C 586.695312 288.242188 586.265625 287.503906 585.800781 286.789062 C 585.339844 286.070312 584.839844 285.375 584.308594 284.707031 C 583.777344 284.039062 583.214844 283.394531 582.621094 282.78125 Z M 582.621094 282.78125 " fill-opacity="1" fill-rule="nonzero"/></svg>