<svg xmlns="http://www.w3.org/2000/svg" xmlns:xlink="http://www.w3.org/1999/xlink" width="800" zoomAndPan="magnify" viewBox="0 0 600 599.999999" height="800" preserveAspectRatio="xMidYMid meet" version="1.0"><path fill="#ffffff" d="M 300 600 C 134.574219 600 0 465.425781 0 300 C 0 134.574219 134.574219 0 300 0 C 465.425781 0 600 134.574219 600 300 C 600 465.425781 465.425781 600 300 600 Z M 300 50 C 162.148438 50 50 162.148438 50 300 C 50 437.851562 162.148438 550 300 550 C 437.851562 550 550 437.851562 550 300 C 550 162.148438 437.851562 50 300 50 Z M 300 50 " fill-opacity="1" fill-rule="nonzero"/><path fill="#ffffff" d="M 275 425 C 268.375 425 262.023438 422.375 257.324219 417.675781 L 157.324219 317.675781 C 147.550781 307.898438 147.550781 292.101562 157.324219 282.324219 C 167.101562 272.550781 182.898438 272.550781 192.675781 282.324219 L 273.773438 363.425781 L 431.175781 183.550781 C 440.273438 173.148438 456.050781 172.101562 466.449219 181.175781 C 476.851562 190.273438 477.898438 206.074219 468.800781 216.449219 L 293.800781 416.449219 C 289.25 421.675781 282.75 424.75 275.824219 424.976562 C 275.550781 425 275.273438 425 275 425 Z M 275 425 " fill-opacity="1" fill-rule="nonzero"/></svg>