<svg xmlns="http://www.w3.org/2000/svg" xmlns:xlink="http://www.w3.org/1999/xlink" width="800" zoomAndPan="magnify" viewBox="0 0 600 599.999999" height="800" preserveAspectRatio="xMidYMid meet" version="1.0"><path fill="#ffffff" d="M 470.59375 546.742188 L 384.632812 428.421875 C 361.371094 443.804688 334.820312 452.484375 307.117188 453.730469 L 307.117188 599.898438 C 365.992188 598.535156 422.230469 580.246094 470.59375 546.742188 " fill-opacity="1" fill-rule="nonzero"/><path fill="#ffffff" d="M 293 453.730469 C 265.28125 452.484375 238.734375 443.804688 215.472656 428.421875 L 129.523438 546.742188 C 177.871094 580.246094 234.101562 598.535156 293 599.898438 L 293 453.730469 " fill-opacity="1" fill-rule="nonzero"/><path fill="#ffffff" d="M 396.046875 420.101562 L 482.015625 538.417969 C 528.304688 503 563.882812 454.058594 583.109375 399.382812 L 444.058594 354.183594 C 434.316406 380.109375 417.875 402.683594 396.046875 420.101562 " fill-opacity="1" fill-rule="nonzero"/><path fill="#ffffff" d="M 448.414062 259.195312 C 452.097656 272.539062 453.972656 286.222656 453.972656 299.988281 C 453.972656 313.746094 452.097656 327.417969 448.414062 340.75 L 587.476562 385.953125 C 595.8125 358.054688 600.046875 329.160156 600.046875 299.988281 C 600.046875 270.789062 595.8125 241.925781 587.476562 214.019531 L 586.269531 214.398438 L 448.414062 259.195312 " fill-opacity="1" fill-rule="nonzero"/><path fill="#ffffff" d="M 470.59375 53.234375 C 422.230469 19.699219 365.992188 1.414062 307.117188 0.0664062 L 307.117188 146.226562 C 334.820312 147.496094 361.371094 156.167969 384.632812 171.554688 L 470.59375 53.234375 " fill-opacity="1" fill-rule="nonzero"/><path fill="#ffffff" d="M 482.015625 61.554688 L 396.046875 179.855469 C 417.875 197.292969 434.316406 219.839844 444.058594 245.757812 L 583.109375 200.582031 C 563.882812 145.898438 528.304688 96.972656 482.015625 61.554688 " fill-opacity="1" fill-rule="nonzero"/><path fill="#ffffff" d="M 204.058594 179.855469 L 118.105469 61.554688 C 71.828125 96.949219 36.238281 145.898438 16.996094 200.582031 L 156.042969 245.757812 C 165.785156 219.839844 182.242188 197.292969 204.058594 179.855469 " fill-opacity="1" fill-rule="nonzero"/><path fill="#ffffff" d="M 146.144531 299.988281 C 146.144531 286.222656 148.003906 272.539062 151.6875 259.195312 L 12.625 214.019531 C 4.285156 241.925781 0.0664062 270.789062 0.0664062 299.988281 C 0.0664062 329.160156 4.285156 358.054688 12.625 385.953125 L 30.238281 380.222656 L 151.6875 340.75 C 148.003906 327.417969 146.144531 313.746094 146.144531 299.988281 " fill-opacity="1" fill-rule="nonzero"/><path fill="#ffffff" d="M 118.105469 538.417969 L 204.058594 420.101562 C 182.242188 402.683594 165.785156 380.109375 156.042969 354.183594 L 16.996094 399.382812 C 36.238281 454.058594 71.828125 503 118.105469 538.417969 " fill-opacity="1" fill-rule="nonzero"/></svg>