<svg xmlns="http://www.w3.org/2000/svg" xmlns:xlink="http://www.w3.org/1999/xlink" width="800" zoomAndPan="magnify" viewBox="0 0 600 599.999999" height="800" preserveAspectRatio="xMidYMid meet" version="1.0"><path fill="#ffffff" d="M 300 0 C 134.515625 0 0 134.515625 0 300 C 0 465.484375 134.515625 600 300 600 C 465.484375 600 600 465.484375 600 300 C 600 134.515625 465.484375 0 300 0 Z M 468.582031 329.03125 L 329.03125 329.03125 L 329.03125 468.578125 C 329.03125 484.449219 316.066406 497.613281 300 497.613281 C 283.933594 497.613281 270.96875 484.449219 270.96875 468.578125 L 270.96875 329.03125 L 131.417969 329.03125 C 115.546875 329.03125 102.386719 316.0625 102.386719 300 C 102.386719 283.933594 115.546875 270.96875 131.417969 270.96875 L 270.96875 270.96875 L 270.96875 131.417969 C 270.96875 115.546875 283.933594 102.386719 300 102.386719 C 316.066406 102.386719 329.03125 115.546875 329.03125 131.417969 L 329.03125 270.96875 L 468.582031 270.96875 C 484.453125 270.96875 497.613281 283.933594 497.613281 300 C 497.613281 316.0625 484.453125 329.03125 468.582031 329.03125 Z M 468.582031 329.03125 " fill-opacity="1" fill-rule="nonzero"/></svg>